<svg xmlns="http://www.w3.org/2000/svg" viewBox="0 0 254.11 50.82"><title>Genesis Motor logo</title><path d="M512,533.7a1,1,0,0,1-.59-.18c-11.62-6.94-23.49-17.65-25.91-30.12-.83-4.71.95-5.59,3.9-6.65,5.31-1.94,17.53-5.7,22.6-5.7s17.29,3.76,22.6,5.7c3,1.06,4.72,1.94,3.9,6.65-2.42,12.47-14.28,23.17-25.91,30.12a1,1,0,0,1-.59.18" transform="translate(-384.95 -486.59)" style="fill:#fff"/><path d="M512,537.41a1.78,1.78,0,0,0,.71-.18c14.28-7.12,20.95-13.65,29.33-27.18,3.13-5.18,4.9-7.82,12.51-8.94,11.92-1.71,65.74-5.47,76.36-6.94,4.54-.65,5.78-1.35,7.91-3.59.35-.35.35-.65-.3-.59-1.36.12-55.06,2.41-87.28,3.59-7.91.41-10.27.24-16.88-1.94-9.8-3-18.65-5.06-22.37-5.06s-12.57,2.06-22.37,5.06c-6.61,2.18-9,2.35-16.88,1.94-32.22-1.18-85.92-3.47-87.28-3.59-.65-.06-.65.24-.3.59,2.13,2.24,3.36,2.94,7.91,3.59,10.62,1.47,64.44,5.23,76.36,6.94,7.61,1.12,9.38,3.77,12.51,8.94,8.38,13.53,15,20.06,29.33,27.18a1.79,1.79,0,0,0,.71.18m-17.23-6c.65.12.65-.18.3-.47-8.38-6.65-11.21-11.53-17.64-21.53-1.95-3.06-4.31-4.47-9.5-5.12-2.83-.35-63.56-6-75.48-7.06-.65-.06-.65.18-.3.53a61.76,61.76,0,0,0,6.43,5.59c6.26,4.76,10.92,5.94,18.53,6.23,6.43.24,45.68,2.12,50.28,2.47,3.31.24,4.31.76,5.19,1.82.41.47.47.88-.12.88-3.9,0-28-.24-47.92-.71-.18,0-.24.12-.06.18,14.22,4.7,25.61,7.65,37.18,7.59,5.84-.06,11.62-.12,13.93-.12,2.48,0,3.48.23,4.43,1.41.35.47.3.76-.53.82-3.48.29-8.44.65-14.28,1-.53.06-.53.18-.06.29,13.28,3.18,20.3,4.65,29.62,6.18M512,533.71a1,1,0,0,1-.59-.18c-11.63-6.94-23.49-17.65-25.91-30.12-.83-4.7.95-5.59,3.9-6.65,5.31-1.94,17.53-5.71,22.6-5.71s17.29,3.77,22.6,5.71c3,1.06,4.72,1.94,3.89,6.65-2.42,12.47-14.28,23.17-25.91,30.12a1,1,0,0,1-.59.18m17.23-2.29c9.32-1.53,16.35-3,29.62-6.18.47-.12.47-.24-.06-.29-5.84-.35-10.8-.71-14.28-1-.83-.06-.89-.35-.53-.82.94-1.18,1.95-1.41,4.43-1.41,2.3,0,8.08.06,13.93.12,11.57.06,23-2.88,37.18-7.59.18-.06.12-.18-.06-.18-19.89.47-44,.71-47.92.71-.59,0-.53-.41-.12-.88.88-1.06,1.89-1.59,5.19-1.82,4.6-.35,43.85-2.23,50.28-2.47,7.61-.29,12.27-1.47,18.53-6.23a61.94,61.94,0,0,0,6.43-5.59c.35-.35.35-.59-.3-.53-11.92,1.06-72.65,6.7-75.48,7.06-5.19.65-7.55,2.06-9.5,5.12-6.43,10-9.26,14.88-17.65,21.53-.35.29-.35.59.3.47" transform="translate(-384.95 -486.59)"/><path d="M494.77,505.33l.65.27a.37.37,0,0,1,.27.4v1.49a2.18,2.18,0,0,1-1.08.26,2.36,2.36,0,0,1-2.21-2.57c0-1.54.84-2.67,2.29-2.67a3.14,3.14,0,0,1,2,.76l.3-1.09a5.85,5.85,0,0,0-2.31-.55,3.4,3.4,0,0,0-3.8,3.56,3.31,3.31,0,0,0,3.57,3.45A4.55,4.55,0,0,0,497,508v-3h-2.12Zm14.78,1-3.6-4.55h-1.42l-.17.4.3.14a.41.41,0,0,1,.27.43v5.72H506v-4.34l3.44,4.34h1.18v-6.7h-1.06Zm7.55-3.69-.23-.85H512.1l-.16.4.3.14a.41.41,0,0,1,.25.45v5.7h4.61v-.87H514v-2.18h2.71v-.83H514v-2Zm7-.45.3.14a.41.41,0,0,1,.26.45v5.7h1.48v-6.7h-1.87Zm-2.77,2.39c-.83-.43-1.7-.67-1.7-1.43,0-.37.36-.68,1.06-.68a5.13,5.13,0,0,1,2,.51l.19-1a6.45,6.45,0,0,0-2.07-.35c-1.73,0-2.63.77-2.63,1.83s.69,1.59,1.72,2.07,1.66.69,1.66,1.35c0,.5-.39.82-1.15.82a5.49,5.49,0,0,1-2.07-.51l-.11,1.16a11.08,11.08,0,0,0,2.23.27c1.39,0,2.63-.67,2.63-1.89s-.88-1.69-1.75-2.15m-18-1.94-.23-.85h-4.77l-.15.4.3.14a.41.41,0,0,1,.25.45v5.7h4.61v-.87h-3.13v-2.18h2.71v-.83h-2.71v-2Zm27.56,1.94c-.83-.43-1.7-.67-1.7-1.43,0-.37.36-.68,1.06-.68a5.13,5.13,0,0,1,2,.51l.19-1a6.47,6.47,0,0,0-2.07-.35c-1.73,0-2.68.77-2.68,1.83s.75,1.59,1.78,2.07,1.66.69,1.66,1.35c0,.5-.39.82-1.15.82a5.49,5.49,0,0,1-2.07-.51l-.11,1.16a11.06,11.06,0,0,0,2.23.27c1.39,0,2.63-.67,2.63-1.89s-.88-1.69-1.75-2.15" transform="translate(-384.95 -486.59)"/></svg>